<svg width="573.5624755859375px" height="122.021240234375px" xmlns="http://www.w3.org/2000/svg" viewBox="-65.92500000000001 14 631.85 122" style="background: rgba(0, 0, 0, 0);" preserveAspectRatio="xMidYMid"><defs><linearGradient id="editing-shiny-gradient" x1="0.04322727117869957" x2="0.9567727288213004" y1="0.2966316784620999" y2="0.7033683215379001" gradientUnits="objectBoundingBox"><stop offset="0.0" stop-color="#ffb200"></stop><stop offset="0.5" stop-color="#e10057"></stop><stop offset="1.0" stop-color="#5A1A80"></stop></linearGradient><linearGradient id="editing-shiny-gradient2" x1="0" x2="0" y1="0" y2="1"><stop offset="0.2" stop-color="#fff" stop-opacity="0.8"></stop><stop offset="0.8" stop-color="#fff" stop-opacity="0"></stop></linearGradient><filter id="editing-shiny2" x="-100%" y="-100%" width="300%" height="300%"><feMorphology operator="erode" radius="2"></feMorphology></filter><filter id="editing-shiny" x="-100%" y="-100%" width="300%" height="300%"><feFlood flood-color="#fff" result="flood"></feFlood><feConvolveMatrix in="SourceGraphic" result="conv" order="8,8" divisor="1" kernelMatrix="0 0 0 0 0 0 0 0 0 0 0 1 1 0 0 0 0 0 0 1 1 0 0 0 0 0 1 0 0 1 0 0 0 0 1 0 0 1 0 0 0 1 0 0 0 0 1 0 0 1 1 0 0 1 1 0 0 0 0 1 1 0 0 0 "></feConvolveMatrix><feOffset dx="0" dy="4" in="conv" result="offset"></feOffset><feComposite operator="in" in="flood" in2="offset" result="comp"></feComposite><feGaussianBlur in="offset" stdDeviation="3" result="shadow"></feGaussianBlur><feColorMatrix in="shadow" type="matrix" values="0.7 0 0 0 0  0 0.7 0 0 0  0 0 0.7 0 0  0 0 0 0.3 0" result="dark-shadow"></feColorMatrix><feOffset dx="0" dy="4" in="dark-shadow" result="offset-shadow"></feOffset><feOffset dx="0" dy="2" in="conv" result="offset-2"></feOffset><feComposite operator="out" in="offset" in2="offset-2" result="edge-diff"></feComposite><feGaussianBlur in="edge-diff" stdDeviation="1" result="edge-blur"></feGaussianBlur><feColorMatrix in="edge-blur" result="edge-shadow" type="matrix" values="0 0 0 0 0  0 0 0 0 0  0 0 0 0 0  0 0 0 0.5 0"></feColorMatrix><feComposite operator="in" in="edge-shadow" in2="offset" result="edge-shadow-in"></feComposite><feOffset dx="0" dy="1" in="edge-shadow-in" result="edge-shadow-final"></feOffset><feMerge result="out"><feMergeNode in="offset-shadow"></feMergeNode><feMergeNode in="comp"></feMergeNode><feMergeNode in="edge-shadow-final"></feMergeNode><feMergeNode in="SourceGraphic"></feMergeNode></feMerge></filter></defs><g filter="url(#editing-shiny)"><g transform="translate(27.288806170225143, 99)"><path d="M21.12-17.98L21.12-17.98L21.12-17.98Q23.42-22.08 23.42-26.24L23.42-26.24L23.42-26.24Q23.42-28.99 21.44-28.99L21.44-28.99L21.44-28.99Q19.90-28.99 18.30-26.37L18.30-26.37L18.30-26.37Q16.64-23.74 16.13-20.35L16.13-20.35L12.80 0L-0.45 1.28L6.08-32.64L16.64-33.92L15.49-27.46L15.49-27.46Q18.62-33.92 25.66-33.92L25.66-33.92L25.66-33.92Q29.38-33.92 31.39-32L31.39-32L31.39-32Q33.41-30.08 33.41-26.14L33.41-26.14L33.41-26.14Q33.41-22.21 30.82-19.71L30.82-19.71L30.82-19.71Q28.22-17.22 23.81-17.22L23.81-17.22L23.81-17.22Q21.89-17.22 21.12-17.98ZM60.35-10.82L60.35-10.82L60.35-10.82Q61.95-9.73 61.95-7.33L61.95-7.33L61.95-7.33Q61.95-4.93 60.74-3.39L60.74-3.39L60.74-3.39Q59.52-1.86 57.54-0.83L57.54-0.83L57.54-0.83Q53.44 1.28 49.02 1.28L49.02 1.28L49.02 1.28Q44.61 1.28 42.02 0.32L42.02 0.32L42.02 0.32Q39.42-0.64 37.70-2.43L37.70-2.43L37.70-2.43Q34.30-5.82 34.30-12.03L34.30-12.03L34.30-12.03Q34.30-21.70 39.55-27.58L39.55-27.58L39.55-27.58Q45.18-33.92 54.98-33.92L54.98-33.92L54.98-33.92Q61.06-33.92 64.06-31.36L64.06-31.36L64.06-31.36Q66.30-29.44 66.30-26.30L66.30-26.30L66.30-26.30Q66.30-15.04 46.85-15.04L46.85-15.04L46.85-15.04Q46.59-13.38 46.59-11.97L46.59-11.97L46.59-11.97Q46.59-9.02 47.90-7.90L47.90-7.90L47.90-7.90Q49.22-6.78 51.65-6.78L51.65-6.78L51.65-6.78Q54.08-6.78 56.67-7.90L56.67-7.90L56.67-7.90Q59.26-9.02 60.35-10.82ZM47.30-17.79L47.30-17.79L47.30-17.79Q51.84-17.79 54.46-20.61L54.46-20.61L54.46-20.61Q57.09-23.30 57.09-27.58L57.09-27.58L57.09-27.58Q57.09-29.06 56.54-29.86L56.54-29.86L56.54-29.86Q56-30.66 54.91-30.66L54.91-30.66L54.91-30.66Q53.82-30.66 52.90-30.24L52.90-30.24L52.90-30.24Q51.97-29.82 51.01-28.42L51.01-28.42L51.01-28.42Q48.64-25.22 47.30-17.79ZM71.26-1.92L71.26-1.92L71.26-1.92Q69.76-3.58 69.09-6.21L69.09-6.21L69.09-6.21Q68.42-8.83 68.42-13.12L68.42-13.12L68.42-13.12Q68.42-17.41 69.89-21.31L69.89-21.31L69.89-21.31Q71.36-25.22 74.05-28.03L74.05-28.03L74.05-28.03Q79.55-33.92 88.64-33.92L88.64-33.92L88.64-33.92Q91.90-33.92 94.27-32.83L94.27-32.83L105.22-33.92L100.48-8.96L100.48-8.96Q100.29-8.19 100.29-6.78L100.29-6.78L100.29-6.78Q100.29-5.38 101.15-4.48L101.15-4.48L101.15-4.48Q102.02-3.58 103.30-3.46L103.30-3.46L103.30-3.46Q102.66-1.28 100.32 0L100.32 0L100.32 0Q97.98 1.28 95.36 1.28L95.36 1.28L95.36 1.28Q92.74 1.28 90.98 0.29L90.98 0.29L90.98 0.29Q89.22-0.70 88.70-2.37L88.70-2.37L88.70-2.37Q87.68-0.77 85.50 0.26L85.50 0.26L85.50 0.26Q83.33 1.28 80.42 1.28L80.42 1.28L80.42 1.28Q77.50 1.28 75.14 0.51L75.14 0.51L75.14 0.51Q72.77-0.26 71.26-1.92ZM84.77-27.90L84.77-27.90L84.77-27.90Q84.03-26.75 83.39-24.80L83.39-24.80L83.39-24.80Q82.75-22.85 81.70-17.63L81.70-17.63L81.70-17.63Q80.64-12.42 80.64-8.70L80.64-8.70L80.64-8.70Q80.64-4.99 81.22-3.90L81.22-3.90L81.22-3.90Q81.79-2.82 82.82-2.82L82.82-2.82L82.82-2.82Q84.86-2.82 86.37-4.77L86.37-4.77L86.37-4.77Q87.87-6.72 88.45-10.18L88.45-10.18L91.84-28.93L91.84-28.93Q90.50-30.08 88.93-30.08L88.93-30.08L88.93-30.08Q87.36-30.08 86.43-29.57L86.43-29.57L86.43-29.57Q85.50-29.06 84.77-27.90ZM123.97-3.52L123.97-3.52L123.97-3.52Q121.98 1.28 115.65 1.28L115.65 1.28L115.65 1.28Q112.45 1.28 110.40-0.96L110.40-0.96L110.40-0.96Q108.74-2.82 108.74-4.93L108.74-4.93L108.74-4.93Q108.74-9.73 110.98-20.22L110.98-20.22L115.65-44.80L128.64-46.08L122.43-13.70L122.43-13.70Q121.34-8.96 121.34-7.30L121.34-7.30L121.34-7.30Q121.34-3.65 123.97-3.52ZM162.82-13.25L162.82-13.25L162.82-13.25Q164.48-12.03 164.48-9.44L164.48-9.44L164.48-9.44Q164.48-6.85 163.36-5.02L163.36-5.02L163.36-5.02Q162.24-3.20 160.06-1.79L160.06-1.79L160.06-1.79Q155.39 1.22 147.23 1.22L147.23 1.22L147.23 1.22Q139.07 1.22 134.62-3.04L134.62-3.04L134.62-3.04Q130.18-7.30 130.18-14.85L130.18-14.85L130.18-14.85Q130.18-25.54 135.74-33.66L135.74-33.66L135.74-33.66Q139.97-39.68 147.52-42.24L147.52-42.24L147.52-42.24Q151.42-43.52 155.26-43.52L155.26-43.52L155.26-43.52Q159.10-43.52 161.47-43.01L161.47-43.01L161.47-43.01Q163.84-42.50 165.63-41.47L165.63-41.47L165.63-41.47Q169.54-39.23 169.54-35.65L169.54-35.65L169.54-35.65Q169.54-32.38 166.46-29.95L166.46-29.95L166.46-29.95Q163.65-27.78 161.34-27.78L161.34-27.78L161.34-27.78Q159.04-27.78 158.08-28.10L158.08-28.10L158.08-28.10Q158.34-30.40 158.34-31.90L158.34-31.90L158.34-31.90Q158.34-33.41 158.27-34.50L158.27-34.50L158.27-34.50Q158.21-35.58 157.89-36.61L157.89-36.61L157.89-36.61Q157.25-38.98 155.30-38.98L155.30-38.98L155.30-38.98Q153.34-38.98 151.39-37.15L151.39-37.15L151.39-37.15Q149.44-35.33 147.78-32.26L147.78-32.26L147.78-32.26Q144-25.28 144-17.02L144-17.02L144-17.02Q144-13.06 146.24-10.78L146.24-10.78L146.24-10.78Q148.48-8.51 153.28-8.51L153.28-8.51L153.28-8.51Q156.86-8.51 160.26-10.88L160.26-10.88L160.26-10.88Q161.73-11.90 162.82-13.25ZM201.98-7.10L201.98-7.10L201.98-7.10Q201.98-4.29 204.86-3.46L204.86-3.46L204.86-3.46Q204.16-1.09 201.41 0.19L201.41 0.19L201.41 0.19Q199.10 1.28 196.58 1.28L196.58 1.28L196.58 1.28Q194.05 1.28 192.74 0.61L192.74 0.61L192.74 0.61Q191.42-0.06 190.72-1.15L190.72-1.15L190.72-1.15Q189.57-2.82 189.57-5.95L189.57-5.95L189.57-5.95Q189.57-7.81 190.59-12.93L190.59-12.93L191.49-17.79L191.49-17.79Q192.58-23.36 192.58-25.41L192.58-25.41L192.58-25.41Q192.58-28.99 190.59-28.99L190.59-28.99L190.59-28.99Q188.10-28.99 186.50-25.34L186.50-25.34L186.50-25.34Q185.86-23.94 185.41-21.82L185.41-21.82L181.06 0L168.19 1.28L177.22-44.80L190.08-46.08L189.57-43.52L189.57-43.52Q187.78-33.66 186.24-30.34L186.24-30.34L186.24-30.34Q189.82-33.92 196.42-33.92L196.42-33.92L196.42-33.92Q203.39-33.92 204.67-29.31L204.67-29.31L204.67-29.31Q205.12-27.84 205.12-26.56L205.12-26.56L205.12-26.56Q205.12-25.28 205.02-24.29L205.02-24.29L205.02-24.29Q204.93-23.30 204.61-21.50L204.61-21.50L203.78-16.90L202.30-9.66L202.30-9.66Q201.98-8.19 201.98-7.10ZM230.08-17.98L230.08-17.98L230.08-17.98Q232.38-22.08 232.38-26.24L232.38-26.24L232.38-26.24Q232.38-28.99 230.40-28.99L230.40-28.99L230.40-28.99Q228.86-28.99 227.26-26.37L227.26-26.37L227.26-26.37Q225.60-23.74 225.09-20.35L225.09-20.35L221.76 0L208.51 1.28L215.04-32.64L225.60-33.92L224.45-27.46L224.45-27.46Q227.58-33.92 234.62-33.92L234.62-33.92L234.62-33.92Q238.34-33.92 240.35-32L240.35-32L240.35-32Q242.37-30.08 242.37-26.14L242.37-26.14L242.37-26.14Q242.37-22.21 239.78-19.71L239.78-19.71L239.78-19.71Q237.18-17.22 232.77-17.22L232.77-17.22L232.77-17.22Q230.85-17.22 230.08-17.98ZM258.75-3.52L258.75-3.52L258.75-3.52Q256.77 1.28 250.43 1.28L250.43 1.28L250.43 1.28Q247.17 1.28 245.12-0.96L245.12-0.96L245.12-0.96Q243.39-2.94 243.39-4.93L243.39-4.93L243.39-4.93Q243.39-10.11 245.76-20.22L245.76-20.22L248.13-32.64L261.12-33.92L257.22-13.70L257.22-13.70Q256.13-8.96 256.13-7.30L256.13-7.30L256.13-7.30Q256.13-3.65 258.75-3.52ZM249.28-41.54L249.28-41.54L249.28-41.54Q249.28-44.03 251.36-45.38L251.36-45.38L251.36-45.38Q253.44-46.72 256.45-46.72L256.45-46.72L256.45-46.72Q259.46-46.72 261.28-45.38L261.28-45.38L261.28-45.38Q263.10-44.03 263.10-41.54L263.10-41.54L263.10-41.54Q263.10-39.04 261.09-37.76L261.09-37.76L261.09-37.76Q259.07-36.48 256.06-36.48L256.06-36.48L256.06-36.48Q253.06-36.48 251.17-37.76L251.17-37.76L251.17-37.76Q249.28-39.04 249.28-41.54ZM283.33-22.46L283.33-22.46L283.33-22.46Q284.22-24.83 284.22-26.88L284.22-26.88L284.22-26.88Q284.22-30.66 281.15-30.66L281.15-30.66L281.15-30.66Q279.55-30.66 278.24-29.22L278.24-29.22L278.24-29.22Q276.93-27.78 276.93-25.98L276.93-25.98L276.93-25.98Q276.93-24.70 277.95-23.68L277.95-23.68L277.95-23.68Q279.42-22.27 283.20-19.97L283.20-19.97L283.20-19.97Q286.98-17.66 288.42-15.78L288.42-15.78L288.42-15.78Q289.86-13.89 289.86-11.30L289.86-11.30L289.86-11.30Q289.86-8.70 288.61-6.34L288.61-6.34L288.61-6.34Q287.36-3.97 285.12-2.30L285.12-2.30L285.12-2.30Q280.32 1.28 272.64 1.28L272.64 1.28L272.64 1.28Q268.48 1.28 265.28-0.90L265.28-0.90L265.28-0.90Q262.08-3.01 262.08-5.50L262.08-5.50L262.08-5.50Q262.08-8 263.90-9.47L263.90-9.47L263.90-9.47Q265.73-10.94 268.42-10.94L268.42-10.94L268.42-10.94Q271.10-10.94 272.77-9.92L272.77-9.92L272.77-9.92Q271.94-7.81 271.94-6.40L271.94-6.40L271.94-6.40Q271.94-2.18 275.52-2.18L275.52-2.18L275.52-2.18Q277.06-2.18 278.08-3.14L278.08-3.14L278.08-3.14Q279.10-4.10 279.10-5.76L279.10-5.76L279.10-5.76Q279.10-9.02 273.60-12.48L273.60-12.48L273.60-12.48Q269.12-15.42 268.10-16.58L268.10-16.58L268.10-16.58Q266.37-18.62 266.37-21.18L266.37-21.18L266.37-21.18Q266.37-23.74 267.58-26.18L267.58-26.18L267.58-26.18Q268.80-28.61 271.04-30.34L271.04-30.34L271.04-30.34Q275.71-33.92 283.84-33.92L283.84-33.92L283.84-33.92Q288-33.92 290.46-32.26L290.46-32.26L290.46-32.26Q292.93-30.59 292.93-27.78L292.93-27.78L292.93-27.78Q292.93-24.96 291.23-23.36L291.23-23.36L291.23-23.36Q289.54-21.76 286.46-21.76L286.46-21.76L286.46-21.76Q284.35-21.76 283.33-22.46ZM328.70-13.25L328.70-13.25L328.70-13.25Q330.37-12.03 330.37-9.44L330.37-9.44L330.37-9.44Q330.37-6.85 329.25-5.02L329.25-5.02L329.25-5.02Q328.13-3.20 325.95-1.79L325.95-1.79L325.95-1.79Q321.28 1.22 313.12 1.22L313.12 1.22L313.12 1.22Q304.96 1.22 300.51-3.04L300.51-3.04L300.51-3.04Q296.06-7.30 296.06-14.85L296.06-14.85L296.06-14.85Q296.06-25.54 301.63-33.66L301.63-33.66L301.63-33.66Q305.86-39.68 313.41-42.24L313.41-42.24L313.41-42.24Q317.31-43.52 321.15-43.52L321.15-43.52L321.15-43.52Q324.99-43.52 327.36-43.01L327.36-43.01L327.36-43.01Q329.73-42.50 331.52-41.47L331.52-41.47L331.52-41.47Q335.42-39.23 335.42-35.65L335.42-35.65L335.42-35.65Q335.42-32.38 332.35-29.95L332.35-29.95L332.35-29.95Q329.54-27.78 327.23-27.78L327.23-27.78L327.23-27.78Q324.93-27.78 323.97-28.10L323.97-28.10L323.97-28.10Q324.22-30.40 324.22-31.90L324.22-31.90L324.22-31.90Q324.22-33.41 324.16-34.50L324.16-34.50L324.16-34.50Q324.10-35.58 323.78-36.61L323.78-36.61L323.78-36.61Q323.14-38.98 321.18-38.98L321.18-38.98L321.18-38.98Q319.23-38.98 317.28-37.15L317.28-37.15L317.28-37.15Q315.33-35.33 313.66-32.26L313.66-32.26L313.66-32.26Q309.89-25.28 309.89-17.02L309.89-17.02L309.89-17.02Q309.89-13.06 312.13-10.78L312.13-10.78L312.13-10.78Q314.37-8.51 319.17-8.51L319.17-8.51L319.17-8.51Q322.75-8.51 326.14-10.88L326.14-10.88L326.14-10.88Q327.62-11.90 328.70-13.25ZM367.87-7.10L367.87-7.10L367.87-7.10Q367.87-4.29 370.75-3.46L370.75-3.46L370.75-3.46Q370.05-1.09 367.30 0.19L367.30 0.19L367.30 0.19Q364.99 1.28 362.46 1.28L362.46 1.28L362.46 1.28Q359.94 1.28 358.62 0.61L358.62 0.61L358.62 0.61Q357.31-0.06 356.61-1.15L356.61-1.15L356.61-1.15Q355.46-2.82 355.46-5.95L355.46-5.95L355.46-5.95Q355.46-7.81 356.48-12.93L356.48-12.93L357.38-17.79L357.38-17.79Q358.46-23.36 358.46-25.41L358.46-25.41L358.46-25.41Q358.46-28.99 356.48-28.99L356.48-28.99L356.48-28.99Q353.98-28.99 352.38-25.34L352.38-25.34L352.38-25.34Q351.74-23.94 351.30-21.82L351.30-21.82L346.94 0L334.08 1.28L343.10-44.80L355.97-46.08L355.46-43.52L355.46-43.52Q353.66-33.66 352.13-30.34L352.13-30.34L352.13-30.34Q355.71-33.92 362.30-33.92L362.30-33.92L362.30-33.92Q369.28-33.92 370.56-29.31L370.56-29.31L370.56-29.31Q371.01-27.84 371.01-26.56L371.01-26.56L371.01-26.56Q371.01-25.28 370.91-24.29L370.91-24.29L370.91-24.29Q370.82-23.30 370.50-21.50L370.50-21.50L369.66-16.90L368.19-9.66L368.19-9.66Q367.87-8.19 367.87-7.10ZM401.86-10.82L401.86-10.82L401.86-10.82Q403.46-9.73 403.46-7.33L403.46-7.33L403.46-7.33Q403.46-4.93 402.24-3.39L402.24-3.39L402.24-3.39Q401.02-1.86 399.04-0.83L399.04-0.83L399.04-0.83Q394.94 1.28 390.53 1.28L390.53 1.28L390.53 1.28Q386.11 1.28 383.52 0.32L383.52 0.32L383.52 0.32Q380.93-0.64 379.20-2.43L379.20-2.43L379.20-2.43Q375.81-5.82 375.81-12.03L375.81-12.03L375.81-12.03Q375.81-21.70 381.06-27.58L381.06-27.58L381.06-27.58Q386.69-33.92 396.48-33.92L396.48-33.92L396.48-33.92Q402.56-33.92 405.57-31.36L405.57-31.36L405.57-31.36Q407.81-29.44 407.81-26.30L407.81-26.30L407.81-26.30Q407.81-15.04 388.35-15.04L388.35-15.04L388.35-15.04Q388.10-13.38 388.10-11.97L388.10-11.97L388.10-11.97Q388.10-9.02 389.41-7.90L389.41-7.90L389.41-7.90Q390.72-6.78 393.15-6.78L393.15-6.78L393.15-6.78Q395.58-6.78 398.18-7.90L398.18-7.90L398.18-7.90Q400.77-9.02 401.86-10.82ZM388.80-17.79L388.80-17.79L388.80-17.79Q393.34-17.79 395.97-20.61L395.97-20.61L395.97-20.61Q398.59-23.30 398.59-27.58L398.59-27.58L398.59-27.58Q398.59-29.06 398.05-29.86L398.05-29.86L398.05-29.86Q397.50-30.66 396.42-30.66L396.42-30.66L396.42-30.66Q395.33-30.66 394.40-30.24L394.40-30.24L394.40-30.24Q393.47-29.82 392.51-28.42L392.51-28.42L392.51-28.42Q390.14-25.22 388.80-17.79ZM437.06 1.28L437.06 1.28L437.06 1.28Q429.31 1.28 429.31-4.74L429.31-4.74L429.31-4.74Q429.38-6.40 429.89-9.22L429.89-9.22L431.04-15.10L431.04-15.10Q432.77-23.42 432.77-25.28L432.77-25.28L432.77-25.28Q432.77-28.99 430.59-28.99L430.59-28.99L430.59-28.99Q426.94-28.99 425.02-19.46L425.02-19.46L421.25 0L408.38 1.28L415.04-32.70L425.54-33.92L424.51-27.65L424.51-27.65Q427.52-33.92 436.74-33.92L436.74-33.92L436.74-33.92Q441.22-33.92 443.10-32.03L443.10-32.03L443.10-32.03Q444.99-30.14 444.99-25.92L444.99-25.92L444.99-25.92Q444.99-21.95 442.94-12.67L442.94-12.67L442.94-12.67Q441.98-8.51 441.98-6.94L441.98-6.94L441.98-6.94Q441.98-5.38 442.85-4.48L442.85-4.48L442.85-4.48Q443.71-3.58 444.99-3.46L444.99-3.46L444.99-3.46Q444.35-1.28 442.14 0L442.14 0L442.14 0Q439.94 1.28 437.06 1.28Z" fill="url(#editing-shiny-gradient)"></path></g></g><g filter="url(#editing-shiny2)"><g transform="translate(27.229996889829636, 99)"><path d="M21.12-17.98L21.12-17.98L21.12-17.98Q23.42-22.08 23.42-26.24L23.42-26.24L23.42-26.24Q23.42-28.99 21.44-28.99L21.44-28.99L21.44-28.99Q19.90-28.99 18.30-26.37L18.30-26.37L18.30-26.37Q16.64-23.74 16.13-20.35L16.13-20.35L12.80 0L-0.45 1.28L6.08-32.64L16.64-33.92L15.49-27.46L15.49-27.46Q18.62-33.92 25.66-33.92L25.66-33.92L25.66-33.92Q29.38-33.92 31.39-32L31.39-32L31.39-32Q33.41-30.08 33.41-26.14L33.41-26.14L33.41-26.14Q33.41-22.21 30.82-19.71L30.82-19.71L30.82-19.71Q28.22-17.22 23.81-17.22L23.81-17.22L23.81-17.22Q21.89-17.22 21.12-17.98ZM60.35-10.82L60.35-10.82L60.35-10.82Q61.95-9.73 61.95-7.33L61.95-7.33L61.95-7.33Q61.95-4.93 60.74-3.39L60.74-3.39L60.74-3.39Q59.52-1.86 57.54-0.83L57.54-0.83L57.54-0.83Q53.44 1.28 49.02 1.28L49.02 1.28L49.02 1.28Q44.61 1.28 42.02 0.32L42.02 0.32L42.02 0.32Q39.42-0.64 37.70-2.43L37.70-2.43L37.70-2.43Q34.30-5.82 34.30-12.03L34.30-12.03L34.30-12.03Q34.30-21.70 39.55-27.58L39.55-27.58L39.55-27.58Q45.18-33.92 54.98-33.92L54.98-33.92L54.98-33.92Q61.06-33.92 64.06-31.36L64.06-31.36L64.06-31.36Q66.30-29.44 66.30-26.30L66.30-26.30L66.30-26.30Q66.30-15.04 46.85-15.04L46.85-15.04L46.85-15.04Q46.59-13.38 46.59-11.97L46.59-11.97L46.59-11.97Q46.59-9.02 47.90-7.90L47.90-7.90L47.90-7.90Q49.22-6.78 51.65-6.78L51.65-6.78L51.65-6.78Q54.08-6.78 56.67-7.90L56.67-7.90L56.67-7.90Q59.26-9.02 60.35-10.82ZM47.30-17.79L47.30-17.79L47.30-17.79Q51.84-17.79 54.46-20.61L54.46-20.61L54.46-20.61Q57.09-23.30 57.09-27.58L57.09-27.58L57.09-27.58Q57.09-29.06 56.54-29.86L56.54-29.86L56.54-29.86Q56-30.66 54.91-30.66L54.91-30.66L54.91-30.66Q53.82-30.66 52.90-30.24L52.90-30.24L52.90-30.24Q51.97-29.82 51.01-28.42L51.01-28.42L51.01-28.42Q48.64-25.22 47.30-17.79ZM71.26-1.92L71.26-1.92L71.26-1.92Q69.76-3.58 69.09-6.21L69.09-6.21L69.09-6.21Q68.42-8.83 68.42-13.12L68.42-13.12L68.42-13.12Q68.42-17.41 69.89-21.31L69.89-21.31L69.89-21.31Q71.36-25.22 74.05-28.03L74.05-28.03L74.05-28.03Q79.55-33.92 88.64-33.92L88.64-33.92L88.64-33.92Q91.90-33.92 94.27-32.83L94.27-32.83L105.22-33.92L100.48-8.96L100.48-8.96Q100.29-8.19 100.29-6.78L100.29-6.78L100.29-6.78Q100.29-5.38 101.15-4.48L101.15-4.48L101.15-4.48Q102.02-3.58 103.30-3.46L103.30-3.46L103.30-3.46Q102.66-1.28 100.32 0L100.32 0L100.32 0Q97.98 1.28 95.36 1.28L95.36 1.28L95.36 1.28Q92.74 1.28 90.98 0.29L90.98 0.29L90.98 0.29Q89.22-0.70 88.70-2.37L88.70-2.37L88.70-2.37Q87.68-0.77 85.50 0.26L85.50 0.26L85.50 0.26Q83.33 1.28 80.42 1.28L80.42 1.28L80.42 1.28Q77.50 1.28 75.14 0.51L75.14 0.51L75.14 0.51Q72.77-0.26 71.26-1.92ZM84.77-27.90L84.77-27.90L84.77-27.90Q84.03-26.75 83.39-24.80L83.39-24.80L83.39-24.80Q82.75-22.85 81.70-17.63L81.70-17.63L81.70-17.63Q80.64-12.42 80.64-8.70L80.64-8.70L80.64-8.70Q80.64-4.99 81.22-3.90L81.22-3.90L81.22-3.90Q81.79-2.82 82.82-2.82L82.82-2.82L82.82-2.82Q84.86-2.82 86.37-4.77L86.37-4.77L86.37-4.77Q87.87-6.72 88.45-10.18L88.45-10.18L91.84-28.93L91.84-28.93Q90.50-30.08 88.93-30.08L88.93-30.08L88.93-30.08Q87.36-30.08 86.43-29.57L86.43-29.57L86.43-29.57Q85.50-29.06 84.77-27.90ZM123.97-3.52L123.97-3.52L123.97-3.52Q121.98 1.28 115.65 1.28L115.65 1.28L115.65 1.28Q112.45 1.28 110.40-0.96L110.40-0.96L110.40-0.96Q108.74-2.82 108.74-4.93L108.74-4.93L108.74-4.93Q108.74-9.73 110.98-20.22L110.98-20.22L115.65-44.80L128.64-46.08L122.43-13.70L122.43-13.70Q121.34-8.96 121.34-7.30L121.34-7.30L121.34-7.30Q121.34-3.65 123.97-3.52ZM162.82-13.25L162.82-13.25L162.82-13.25Q164.48-12.03 164.48-9.44L164.48-9.44L164.48-9.44Q164.48-6.85 163.36-5.02L163.36-5.02L163.36-5.02Q162.24-3.20 160.06-1.79L160.06-1.79L160.06-1.79Q155.39 1.22 147.23 1.22L147.23 1.22L147.23 1.22Q139.07 1.22 134.62-3.04L134.62-3.04L134.62-3.04Q130.18-7.30 130.18-14.85L130.18-14.85L130.18-14.85Q130.18-25.54 135.74-33.66L135.74-33.66L135.74-33.66Q139.97-39.68 147.52-42.24L147.52-42.24L147.52-42.24Q151.42-43.52 155.26-43.52L155.26-43.52L155.26-43.52Q159.10-43.52 161.47-43.01L161.47-43.01L161.47-43.01Q163.84-42.50 165.63-41.47L165.63-41.47L165.63-41.47Q169.54-39.23 169.54-35.65L169.54-35.65L169.54-35.65Q169.54-32.38 166.46-29.95L166.46-29.95L166.46-29.95Q163.65-27.78 161.34-27.78L161.34-27.78L161.34-27.78Q159.04-27.78 158.08-28.10L158.08-28.10L158.08-28.10Q158.34-30.40 158.34-31.90L158.34-31.90L158.34-31.90Q158.34-33.41 158.27-34.50L158.27-34.50L158.27-34.50Q158.21-35.58 157.89-36.61L157.89-36.61L157.89-36.61Q157.25-38.98 155.30-38.98L155.30-38.98L155.30-38.98Q153.34-38.98 151.39-37.15L151.39-37.15L151.39-37.15Q149.44-35.33 147.78-32.26L147.78-32.26L147.78-32.26Q144-25.28 144-17.02L144-17.02L144-17.02Q144-13.06 146.24-10.78L146.24-10.78L146.24-10.78Q148.48-8.51 153.28-8.51L153.28-8.51L153.28-8.51Q156.86-8.51 160.26-10.88L160.26-10.88L160.26-10.88Q161.73-11.90 162.82-13.25ZM201.98-7.10L201.98-7.10L201.98-7.10Q201.98-4.29 204.86-3.46L204.86-3.46L204.86-3.46Q204.16-1.09 201.41 0.19L201.41 0.19L201.41 0.19Q199.10 1.28 196.58 1.28L196.58 1.28L196.58 1.28Q194.05 1.28 192.74 0.61L192.74 0.61L192.74 0.61Q191.42-0.06 190.72-1.15L190.72-1.15L190.72-1.15Q189.57-2.82 189.57-5.95L189.57-5.95L189.57-5.95Q189.57-7.81 190.59-12.93L190.59-12.93L191.49-17.79L191.49-17.79Q192.58-23.36 192.58-25.41L192.58-25.41L192.58-25.41Q192.58-28.99 190.59-28.99L190.59-28.99L190.59-28.99Q188.10-28.99 186.50-25.34L186.50-25.34L186.50-25.34Q185.86-23.94 185.41-21.82L185.41-21.82L181.06 0L168.19 1.28L177.22-44.80L190.08-46.08L189.57-43.52L189.57-43.52Q187.78-33.66 186.24-30.34L186.24-30.34L186.24-30.34Q189.82-33.92 196.42-33.92L196.42-33.92L196.42-33.92Q203.39-33.92 204.67-29.31L204.67-29.31L204.67-29.31Q205.12-27.84 205.12-26.56L205.12-26.56L205.12-26.56Q205.12-25.28 205.02-24.29L205.02-24.29L205.02-24.29Q204.93-23.30 204.61-21.50L204.61-21.50L203.78-16.90L202.30-9.66L202.30-9.66Q201.98-8.19 201.98-7.10ZM230.08-17.98L230.08-17.98L230.08-17.98Q232.38-22.08 232.38-26.24L232.38-26.24L232.38-26.24Q232.38-28.99 230.40-28.99L230.40-28.99L230.40-28.99Q228.86-28.99 227.26-26.37L227.26-26.37L227.26-26.37Q225.60-23.74 225.09-20.35L225.09-20.35L221.76 0L208.51 1.28L215.04-32.64L225.60-33.92L224.45-27.46L224.45-27.46Q227.58-33.92 234.62-33.92L234.62-33.92L234.62-33.92Q238.34-33.92 240.35-32L240.35-32L240.35-32Q242.37-30.08 242.37-26.14L242.37-26.14L242.37-26.14Q242.37-22.21 239.78-19.71L239.78-19.71L239.78-19.71Q237.18-17.22 232.77-17.22L232.77-17.22L232.77-17.22Q230.85-17.22 230.08-17.98ZM258.75-3.52L258.75-3.52L258.75-3.52Q256.77 1.28 250.43 1.28L250.43 1.28L250.43 1.28Q247.17 1.28 245.12-0.96L245.12-0.96L245.12-0.96Q243.39-2.94 243.39-4.93L243.39-4.93L243.39-4.93Q243.39-10.11 245.76-20.22L245.76-20.22L248.13-32.64L261.12-33.92L257.22-13.70L257.22-13.70Q256.13-8.96 256.13-7.30L256.13-7.30L256.13-7.30Q256.13-3.65 258.75-3.52ZM249.28-41.54L249.28-41.54L249.28-41.54Q249.28-44.03 251.36-45.38L251.36-45.38L251.36-45.38Q253.44-46.72 256.45-46.72L256.45-46.72L256.45-46.72Q259.46-46.72 261.28-45.38L261.28-45.38L261.28-45.38Q263.10-44.03 263.10-41.54L263.10-41.54L263.10-41.54Q263.10-39.04 261.09-37.76L261.09-37.76L261.09-37.76Q259.07-36.48 256.06-36.48L256.06-36.48L256.06-36.48Q253.06-36.48 251.17-37.76L251.17-37.76L251.17-37.76Q249.28-39.04 249.28-41.54ZM283.33-22.46L283.33-22.46L283.33-22.46Q284.22-24.83 284.22-26.88L284.22-26.88L284.22-26.88Q284.22-30.66 281.15-30.66L281.15-30.66L281.15-30.66Q279.55-30.66 278.24-29.22L278.24-29.22L278.24-29.22Q276.93-27.78 276.93-25.98L276.93-25.98L276.93-25.98Q276.93-24.70 277.95-23.68L277.95-23.68L277.95-23.68Q279.42-22.27 283.20-19.97L283.20-19.97L283.20-19.97Q286.98-17.66 288.42-15.78L288.42-15.78L288.42-15.78Q289.86-13.89 289.86-11.30L289.86-11.30L289.86-11.30Q289.86-8.70 288.61-6.34L288.61-6.34L288.61-6.34Q287.36-3.97 285.12-2.30L285.12-2.30L285.12-2.30Q280.32 1.28 272.64 1.28L272.64 1.28L272.64 1.28Q268.48 1.28 265.28-0.90L265.28-0.90L265.28-0.90Q262.08-3.01 262.08-5.50L262.08-5.50L262.08-5.50Q262.08-8 263.90-9.47L263.90-9.47L263.90-9.47Q265.73-10.94 268.42-10.94L268.42-10.94L268.42-10.94Q271.10-10.94 272.77-9.92L272.77-9.92L272.77-9.92Q271.94-7.81 271.94-6.40L271.94-6.40L271.94-6.40Q271.94-2.18 275.52-2.18L275.52-2.18L275.52-2.18Q277.06-2.18 278.08-3.14L278.08-3.14L278.08-3.14Q279.10-4.10 279.10-5.76L279.10-5.76L279.10-5.76Q279.10-9.02 273.60-12.48L273.60-12.48L273.60-12.48Q269.12-15.42 268.10-16.58L268.10-16.58L268.10-16.58Q266.37-18.62 266.37-21.18L266.37-21.18L266.37-21.18Q266.37-23.74 267.58-26.18L267.58-26.18L267.58-26.18Q268.80-28.61 271.04-30.34L271.04-30.34L271.04-30.34Q275.71-33.92 283.84-33.92L283.84-33.92L283.84-33.92Q288-33.92 290.46-32.26L290.46-32.26L290.46-32.26Q292.93-30.59 292.93-27.78L292.93-27.78L292.93-27.78Q292.93-24.96 291.23-23.36L291.23-23.36L291.23-23.36Q289.54-21.76 286.46-21.76L286.46-21.76L286.46-21.76Q284.35-21.76 283.33-22.46ZM328.70-13.25L328.70-13.25L328.70-13.25Q330.37-12.03 330.37-9.44L330.37-9.44L330.37-9.44Q330.37-6.85 329.25-5.02L329.25-5.02L329.25-5.02Q328.13-3.20 325.95-1.79L325.95-1.79L325.95-1.79Q321.28 1.22 313.12 1.22L313.12 1.22L313.12 1.22Q304.96 1.22 300.51-3.04L300.51-3.04L300.51-3.04Q296.06-7.30 296.06-14.85L296.06-14.85L296.06-14.85Q296.06-25.54 301.63-33.66L301.63-33.66L301.63-33.66Q305.86-39.68 313.41-42.24L313.41-42.24L313.41-42.24Q317.31-43.52 321.15-43.52L321.15-43.52L321.15-43.52Q324.99-43.52 327.36-43.01L327.36-43.01L327.36-43.01Q329.73-42.50 331.52-41.47L331.52-41.47L331.52-41.47Q335.42-39.23 335.42-35.65L335.42-35.65L335.42-35.65Q335.42-32.38 332.35-29.95L332.35-29.95L332.35-29.95Q329.54-27.78 327.23-27.78L327.23-27.78L327.23-27.78Q324.93-27.78 323.97-28.10L323.97-28.10L323.97-28.10Q324.22-30.40 324.22-31.90L324.22-31.90L324.22-31.90Q324.22-33.41 324.16-34.50L324.16-34.50L324.16-34.50Q324.10-35.58 323.78-36.61L323.78-36.61L323.78-36.61Q323.14-38.98 321.18-38.98L321.18-38.98L321.18-38.98Q319.23-38.98 317.28-37.15L317.28-37.15L317.28-37.15Q315.33-35.33 313.66-32.26L313.66-32.26L313.66-32.26Q309.89-25.28 309.89-17.02L309.89-17.02L309.89-17.02Q309.89-13.06 312.13-10.78L312.13-10.78L312.13-10.78Q314.37-8.51 319.17-8.51L319.17-8.51L319.17-8.51Q322.75-8.51 326.14-10.88L326.14-10.88L326.14-10.88Q327.62-11.90 328.70-13.25ZM367.87-7.10L367.87-7.10L367.87-7.10Q367.87-4.29 370.75-3.46L370.75-3.46L370.75-3.46Q370.05-1.09 367.30 0.19L367.30 0.19L367.30 0.19Q364.99 1.28 362.46 1.28L362.46 1.28L362.46 1.28Q359.94 1.28 358.62 0.61L358.62 0.61L358.62 0.61Q357.31-0.06 356.61-1.15L356.61-1.15L356.61-1.15Q355.46-2.82 355.46-5.95L355.46-5.95L355.46-5.95Q355.46-7.81 356.48-12.93L356.48-12.93L357.38-17.79L357.38-17.79Q358.46-23.36 358.46-25.41L358.46-25.41L358.46-25.41Q358.46-28.99 356.48-28.99L356.48-28.99L356.48-28.99Q353.98-28.99 352.38-25.34L352.38-25.34L352.38-25.34Q351.74-23.94 351.30-21.82L351.30-21.82L346.94 0L334.08 1.28L343.10-44.80L355.97-46.08L355.46-43.52L355.46-43.52Q353.66-33.66 352.13-30.34L352.13-30.34L352.13-30.34Q355.71-33.92 362.30-33.92L362.30-33.92L362.30-33.92Q369.28-33.92 370.56-29.31L370.56-29.31L370.56-29.31Q371.01-27.84 371.01-26.56L371.01-26.56L371.01-26.56Q371.01-25.28 370.91-24.29L370.91-24.29L370.91-24.29Q370.82-23.30 370.50-21.50L370.50-21.50L369.66-16.90L368.19-9.66L368.19-9.66Q367.87-8.19 367.87-7.10ZM401.86-10.82L401.86-10.82L401.86-10.82Q403.46-9.73 403.46-7.33L403.46-7.33L403.46-7.33Q403.46-4.93 402.24-3.39L402.24-3.39L402.24-3.39Q401.02-1.86 399.04-0.83L399.04-0.83L399.04-0.83Q394.94 1.28 390.53 1.28L390.53 1.28L390.53 1.28Q386.11 1.28 383.52 0.32L383.52 0.32L383.52 0.32Q380.93-0.64 379.20-2.43L379.20-2.43L379.20-2.43Q375.81-5.82 375.81-12.03L375.81-12.03L375.81-12.03Q375.81-21.70 381.06-27.58L381.06-27.58L381.06-27.58Q386.69-33.92 396.48-33.92L396.48-33.92L396.48-33.92Q402.56-33.92 405.57-31.36L405.57-31.36L405.57-31.36Q407.81-29.44 407.81-26.30L407.81-26.30L407.81-26.30Q407.81-15.04 388.35-15.04L388.35-15.04L388.35-15.04Q388.10-13.38 388.10-11.97L388.10-11.97L388.10-11.97Q388.10-9.02 389.41-7.90L389.41-7.90L389.41-7.90Q390.72-6.78 393.15-6.78L393.15-6.78L393.15-6.78Q395.58-6.78 398.18-7.90L398.18-7.90L398.18-7.90Q400.77-9.02 401.86-10.82ZM388.80-17.79L388.80-17.79L388.80-17.79Q393.34-17.79 395.97-20.61L395.97-20.61L395.97-20.61Q398.59-23.30 398.59-27.58L398.59-27.58L398.59-27.58Q398.59-29.06 398.05-29.86L398.05-29.86L398.05-29.86Q397.50-30.66 396.42-30.66L396.42-30.66L396.42-30.66Q395.33-30.66 394.40-30.24L394.40-30.24L394.40-30.24Q393.47-29.82 392.51-28.42L392.51-28.42L392.51-28.42Q390.14-25.22 388.80-17.79ZM437.06 1.28L437.06 1.28L437.06 1.28Q429.31 1.28 429.31-4.74L429.31-4.74L429.31-4.74Q429.38-6.40 429.89-9.22L429.89-9.22L431.04-15.10L431.04-15.10Q432.77-23.42 432.77-25.28L432.77-25.28L432.77-25.28Q432.77-28.99 430.59-28.99L430.59-28.99L430.59-28.99Q426.94-28.99 425.02-19.46L425.02-19.46L421.25 0L408.38 1.28L415.04-32.70L425.54-33.92L424.51-27.65L424.51-27.65Q427.52-33.92 436.74-33.92L436.74-33.92L436.74-33.92Q441.22-33.92 443.10-32.03L443.10-32.03L443.10-32.03Q444.99-30.14 444.99-25.92L444.99-25.92L444.99-25.92Q444.99-21.95 442.94-12.67L442.94-12.67L442.94-12.67Q441.98-8.51 441.98-6.94L441.98-6.94L441.98-6.94Q441.98-5.38 442.85-4.48L442.85-4.48L442.85-4.48Q443.71-3.58 444.99-3.46L444.99-3.46L444.99-3.46Q444.35-1.28 442.14 0L442.14 0L442.14 0Q439.94 1.28 437.06 1.28Z" fill="url(#editing-shiny-gradient2)"></path></g></g><style>text {
  font-size: 64px;
  font-family: Arial Black;
  dominant-baseline: central;
  text-anchor: middle;
}</style></svg>
