<svg width="573.5624755859375px" height="122.021240234375px" xmlns="http://www.w3.org/2000/svg" viewBox="158.477783203125 4.400000000000006 183.04443359375 141.2" style="background: rgba(0, 0, 0, 0);" preserveAspectRatio="xMidYMid"><defs><linearGradient id="editing-shiny-gradient" x1="0.11142701927151455" x2="0.8885729807284855" y1="0.1853398044750813" y2="0.8146601955249186" gradientUnits="objectBoundingBox"><stop offset="0.0" stop-color="#ffb200"></stop><stop offset="0.5" stop-color="#e10057"></stop><stop offset="1.0" stop-color="#5A1A80"></stop></linearGradient><linearGradient id="editing-shiny-gradient2" x1="0" x2="0" y1="0" y2="1"><stop offset="0.2" stop-color="#fff" stop-opacity="0.8"></stop><stop offset="0.8" stop-color="#fff" stop-opacity="0"></stop></linearGradient><filter id="editing-shiny2" x="-100%" y="-100%" width="300%" height="300%"><feMorphology operator="erode" radius="2"></feMorphology></filter><filter id="editing-shiny" x="-100%" y="-100%" width="300%" height="300%"><feFlood flood-color="#fff" result="flood"></feFlood><feConvolveMatrix in="SourceGraphic" result="conv" order="8,8" divisor="1" kernelMatrix="0 0 0 0 0 0 0 0 0 0 0 1 1 0 0 0 0 0 0 1 1 0 0 0 0 0 1 0 0 1 0 0 0 0 1 0 0 1 0 0 0 1 0 0 0 0 1 0 0 1 1 0 0 1 1 0 0 0 0 1 1 0 0 0 "></feConvolveMatrix><feOffset dx="0" dy="4" in="conv" result="offset"></feOffset><feComposite operator="in" in="flood" in2="offset" result="comp"></feComposite><feGaussianBlur in="offset" stdDeviation="3" result="shadow"></feGaussianBlur><feColorMatrix in="shadow" type="matrix" values="0.7 0 0 0 0  0 0.7 0 0 0  0 0 0.7 0 0  0 0 0 0.3 0" result="dark-shadow"></feColorMatrix><feOffset dx="0" dy="4" in="dark-shadow" result="offset-shadow"></feOffset><feOffset dx="0" dy="2" in="conv" result="offset-2"></feOffset><feComposite operator="out" in="offset" in2="offset-2" result="edge-diff"></feComposite><feGaussianBlur in="edge-diff" stdDeviation="1" result="edge-blur"></feGaussianBlur><feColorMatrix in="edge-blur" result="edge-shadow" type="matrix" values="0 0 0 0 0  0 0 0 0 0  0 0 0 0 0  0 0 0 0.5 0"></feColorMatrix><feComposite operator="in" in="edge-shadow" in2="offset" result="edge-shadow-in"></feComposite><feOffset dx="0" dy="1" in="edge-shadow-in" result="edge-shadow-final"></feOffset><feMerge result="out"><feMergeNode in="offset-shadow"></feMergeNode><feMergeNode in="comp"></feMergeNode><feMergeNode in="edge-shadow-final"></feMergeNode><feMergeNode in="SourceGraphic"></feMergeNode></feMerge></filter></defs><g filter="url(#editing-shiny)"><g transform="translate(189.47433471679688, 106.97000122070312)"><path d="M1.75-1L1.75-1L1.75-1Q1.75-2.19 1.84-4.72L1.84-4.72L1.84-4.72Q1.94-7.25 2.03-10.44L2.03-10.44L2.03-10.44Q2.13-13.63 2.25-17.13L2.25-17.13L2.25-17.13Q2.38-20.63 2.47-23.81L2.47-23.81L2.47-23.81Q2.56-27 2.63-29.50L2.63-29.50L2.63-29.50Q2.69-32 2.75-33.25L2.75-33.25L2.75-33.25Q2.63-34.63 3.25-35L3.25-35L3.25-35Q3.88-35.38 4.66-35.38L4.66-35.38L4.66-35.38Q5.44-35.38 6.03-35.25L6.03-35.25L6.03-35.25Q6.63-35.13 6.88-34.25L6.88-34.25L5.88-2.13L5.88-2.13Q5.75-1 4.13-0.53L4.13-0.53L4.13-0.53Q2.50-0.06 1.75-1ZM15.88-25.06L15.88-25.06L15.88-25.06Q24.38-28 30.56-28L30.56-28L30.56-28Q38.44-28 41.06-23.88L41.06-23.88L41.06-23.88Q42.25-21.94 42.25-19.69L42.25-19.69L42.25-19.69Q42.25-16.56 40.28-13.25L40.28-13.25L40.28-13.25Q38.31-9.94 35.06-7.25L35.06-7.25L35.06-7.25Q27.50-1.06 16.69 0.44L16.69 0.44L16.69 0.44Q16.69 1.13 16.72 2.66L16.72 2.66L16.72 2.66Q16.75 4.19 16.78 6.06L16.78 6.06L16.78 6.06Q16.81 7.94 16.84 10.06L16.84 10.06L16.84 10.06Q16.88 12.19 16.94 14.13L16.94 14.13L16.94 14.13Q17.13 18.94 17.22 19.63L17.22 19.63L17.22 19.63Q17.31 20.31 17.31 20.75L17.31 20.75L17.31 20.75Q17.31 22.31 16.31 23.09L16.31 23.09L16.31 23.09Q15.31 23.88 13.69 23.88L13.69 23.88L13.69 23.88Q13.38 23.88 13.06 23.88L13.06 23.88L12.06-26.38L12.06-26.38Q12.63-27.19 13.56-27.13L13.56-27.13L13.56-27.13Q14.50-27.06 15.06-26.63L15.06-26.63L15.06-26.63Q15.63-26.19 15.88-25.06ZM34.13-22.88L34.13-22.88L34.13-22.88Q32.06-23.94 29.72-23.94L29.72-23.94L29.72-23.94Q27.38-23.94 25.06-23.50L25.06-23.50L25.06-23.50Q19.81-22.50 17.31-19.06L17.31-19.06L17.31-19.06Q16.19-17.44 16.19-15.06L16.19-15.06L16.19-15.06Q16.19-14.81 16.19-14.56L16.19-14.56L16.19-3.75L16.19-3.75Q29.06-6.63 34.44-11.75L34.44-11.75L34.44-11.75Q37.56-14.69 37.56-17.81L37.56-17.81L37.56-17.81Q37.56-21.13 34.13-22.88ZM58.25-4.38L58.25-4.38L58.25-4.38Q63.75-4.38 74.81-9.38L74.81-9.38L74.81-9.38Q75.50-9.38 75.94-8.91L75.94-8.91L75.94-8.91Q76.38-8.44 76.38-7.81L76.38-7.81L76.38-7.81Q73.88-3.56 66.81-1.19L66.81-1.19L66.81-1.19Q59.75 1.19 53.63-0.38L53.63-0.38L53.63-0.38Q46.69-2.19 45.19-8.19L45.19-8.19L45.19-8.19Q45.06-9.38 45.06-11.38L45.06-11.38L45.06-11.38Q45.06-13.38 46.09-16.66L46.09-16.66L46.09-16.66Q47.13-19.94 49.63-22.88L49.63-22.88L49.63-22.88Q52.13-25.81 55.50-27.50L55.50-27.50L55.50-27.50Q58.88-29.19 62.69-29.19L62.69-29.19L62.69-29.19Q66.31-29.19 70.81-26.69L70.81-26.69L70.81-26.69Q72.94-25.50 74.19-24L74.19-24L74.19-24Q75.44-22.50 75.44-20.94L75.44-20.94L75.44-20.94Q75.44-20.50 75.38-20.06L75.38-20.06L75.38-20.06Q75.25-16.25 71.69-15.25L71.69-15.25L71.69-15.25Q70.13-14.81 68.06-14.81L68.06-14.81L59.06-15.19L59.06-15.19Q54.56-15.19 52.19-13.25L52.19-13.25L52.19-13.25Q50.81-12.19 50.25-10.06L50.25-10.06L50.25-10.06Q51.81-4.38 58.25-4.38ZM69.41-23.69L69.41-23.69L69.41-23.69Q68-24.69 66.50-25.13L66.50-25.13L66.50-25.13Q65-25.56 64-25.56L64-25.56L64-25.56Q63-25.56 60.75-24.91L60.75-24.91L60.75-24.91Q58.50-24.25 56.75-23.44L56.75-23.44L56.75-23.44Q52.44-21.44 52.44-19.25L52.44-19.25L52.44-19.25Q57.44-18.81 59.94-18.81L59.94-18.81L59.94-18.81Q66.88-18.81 69.31-20L69.31-20L69.31-20Q70.81-20.63 70.81-21.56L70.81-21.56L70.81-21.56Q70.81-22.69 69.41-23.69ZM81.81-29.38L85.75-29.38L85.75-29.38Q86.56-17.69 87.13-2.31L87.13-2.31L87.13-2.31Q86.75-0.38 84.13-0.38L84.13-0.38L84.13-0.38Q83.44-0.38 82.72-0.66L82.72-0.66L82.72-0.66Q82-0.94 81.81-1.44L81.81-1.44L81.81-29.38ZM79.94-37.88L79.94-37.88L79.94-37.88Q79.94-40.06 82.50-40.06L82.50-40.06L82.50-40.06Q84.19-40.06 85.25-39.31L85.25-39.31L85.25-39.31Q85.44-38.63 85.44-37.97L85.44-37.97L85.44-37.97Q85.44-37.31 84.94-36.69L84.94-36.69L84.94-36.69Q84.44-36.06 83.44-36.06L83.44-36.06L83.44-36.06Q82.44-36.06 81.44-36.53L81.44-36.53L81.44-36.53Q80.44-37 79.94-37.88ZM96.75 0.25L96.75 0.25L96.75 0.25Q90.50 0.25 90.50-2.50L90.50-2.50L90.50-2.50Q90.50-4.25 93.25-7.06L93.25-7.06L93.25-7.06Q96-9.88 98.06-11.66L98.06-11.66L98.06-11.66Q100.13-13.44 102-15.13L102-15.13L102-15.13Q106.44-19.19 109.25-22.63L109.25-22.63L109.25-22.63Q108.69-22.63 107.56-22.63L107.56-22.63L107.56-22.63Q106.44-22.63 104.28-22.47L104.28-22.47L104.28-22.47Q102.13-22.31 99.75-22.06L99.75-22.06L99.75-22.06Q93.31-21.38 91.31-21.38L91.31-21.38L91.31-21.38Q89.31-21.38 89.31-22.25L89.31-22.25L89.31-22.25Q89.31-23.31 90.53-24.19L90.53-24.19L90.53-24.19Q91.75-25.06 92.28-25.06L92.28-25.06L92.28-25.06Q92.81-25.06 93.09-25.13L93.09-25.13L93.09-25.13Q93.38-25.19 94.06-25.28L94.06-25.28L94.06-25.28Q94.75-25.38 96.03-25.53L96.03-25.53L96.03-25.53Q97.31-25.69 99.50-25.88L99.50-25.88L99.50-25.88Q103.81-26.31 113-27.06L113-27.06L113-27.06Q116-26.69 116-24.88L116-24.88L116-24.88Q116-22.56 111.63-18.13L111.63-18.13L111.63-18.13Q107.75-14.25 103.34-10.31L103.34-10.31L103.34-10.31Q98.94-6.38 97.19-4.50L97.19-4.50L97.19-4.50Q99.63-4.31 101.44-4.31L101.44-4.31L111.69-4.75L111.69-4.75Q114.06-4.75 116-4.53L116-4.53L116-4.53Q117.94-4.31 118.38-4.13L118.38-4.13L118.38-4.13Q119.38-3.56 119.38-2L119.38-2L119.38-2Q119.38-1.38 119.13-0.63L119.13-0.63L119.13-0.63Q117.56-0.81 115.88-0.81L115.88-0.81L115.88-0.81Q114.19-0.81 111.44-0.63L111.44-0.63L111.44-0.63Q108.69-0.44 104.81-0.13L104.81-0.13L104.81-0.13Q99.50 0.25 96.75 0.25Z" fill="url(#editing-shiny-gradient)"></path></g></g><g filter="url(#editing-shiny2)"><g transform="translate(189.59218978881836, 106.97000503540039)"><path d="M1.75-1L1.75-1L1.75-1Q1.75-2.19 1.84-4.72L1.84-4.72L1.84-4.72Q1.94-7.25 2.03-10.44L2.03-10.44L2.03-10.44Q2.13-13.63 2.25-17.13L2.25-17.13L2.25-17.13Q2.38-20.63 2.47-23.81L2.47-23.81L2.47-23.81Q2.56-27 2.63-29.50L2.63-29.50L2.63-29.50Q2.69-32 2.75-33.25L2.75-33.25L2.75-33.25Q2.63-34.63 3.25-35L3.25-35L3.25-35Q3.88-35.38 4.66-35.38L4.66-35.38L4.66-35.38Q5.44-35.38 6.03-35.25L6.03-35.25L6.03-35.25Q6.63-35.13 6.88-34.25L6.88-34.25L5.88-2.13L5.88-2.13Q5.75-1 4.13-0.53L4.13-0.53L4.13-0.53Q2.50-0.06 1.75-1ZM15.88-25.06L15.88-25.06L15.88-25.06Q24.38-28 30.56-28L30.56-28L30.56-28Q38.44-28 41.06-23.88L41.06-23.88L41.06-23.88Q42.25-21.94 42.25-19.69L42.25-19.69L42.25-19.69Q42.25-16.56 40.28-13.25L40.28-13.25L40.28-13.25Q38.31-9.94 35.06-7.25L35.06-7.25L35.06-7.25Q27.50-1.06 16.69 0.44L16.69 0.44L16.69 0.44Q16.69 1.13 16.72 2.66L16.72 2.66L16.72 2.66Q16.75 4.19 16.78 6.06L16.78 6.06L16.78 6.06Q16.81 7.94 16.84 10.06L16.84 10.06L16.84 10.06Q16.88 12.19 16.94 14.13L16.94 14.13L16.94 14.13Q17.13 18.94 17.22 19.63L17.22 19.63L17.22 19.63Q17.31 20.31 17.31 20.75L17.31 20.75L17.31 20.75Q17.31 22.31 16.31 23.09L16.31 23.09L16.31 23.09Q15.31 23.88 13.69 23.88L13.69 23.88L13.69 23.88Q13.38 23.88 13.06 23.88L13.06 23.88L12.06-26.38L12.06-26.38Q12.63-27.19 13.56-27.13L13.56-27.13L13.56-27.13Q14.50-27.06 15.06-26.63L15.06-26.63L15.06-26.63Q15.63-26.19 15.88-25.06ZM34.13-22.88L34.13-22.88L34.13-22.88Q32.06-23.94 29.72-23.94L29.72-23.94L29.72-23.94Q27.38-23.94 25.06-23.50L25.06-23.50L25.06-23.50Q19.81-22.50 17.31-19.06L17.31-19.06L17.31-19.06Q16.19-17.44 16.19-15.06L16.19-15.06L16.19-15.06Q16.19-14.81 16.19-14.56L16.19-14.56L16.19-3.75L16.19-3.75Q29.06-6.63 34.44-11.75L34.44-11.75L34.44-11.75Q37.56-14.69 37.56-17.81L37.56-17.81L37.56-17.81Q37.56-21.13 34.13-22.88ZM58.25-4.38L58.25-4.38L58.25-4.38Q63.75-4.38 74.81-9.38L74.81-9.38L74.81-9.38Q75.50-9.38 75.94-8.91L75.94-8.91L75.94-8.91Q76.38-8.44 76.38-7.81L76.38-7.81L76.38-7.81Q73.88-3.56 66.81-1.19L66.81-1.19L66.81-1.19Q59.75 1.19 53.63-0.38L53.63-0.38L53.63-0.38Q46.69-2.19 45.19-8.19L45.19-8.19L45.19-8.19Q45.06-9.38 45.06-11.38L45.06-11.38L45.06-11.38Q45.06-13.38 46.09-16.66L46.09-16.66L46.09-16.66Q47.13-19.94 49.63-22.88L49.63-22.88L49.63-22.88Q52.13-25.81 55.50-27.50L55.50-27.50L55.50-27.50Q58.88-29.19 62.69-29.19L62.69-29.19L62.69-29.19Q66.31-29.19 70.81-26.69L70.81-26.69L70.81-26.69Q72.94-25.50 74.19-24L74.19-24L74.19-24Q75.44-22.50 75.44-20.94L75.44-20.94L75.44-20.94Q75.44-20.50 75.38-20.06L75.38-20.06L75.38-20.06Q75.25-16.25 71.69-15.25L71.69-15.25L71.69-15.25Q70.13-14.81 68.06-14.81L68.06-14.81L59.06-15.19L59.06-15.19Q54.56-15.19 52.19-13.25L52.19-13.25L52.19-13.25Q50.81-12.19 50.25-10.06L50.25-10.06L50.25-10.06Q51.81-4.38 58.25-4.38ZM69.41-23.69L69.41-23.69L69.41-23.69Q68-24.69 66.50-25.13L66.50-25.13L66.50-25.13Q65-25.56 64-25.56L64-25.56L64-25.56Q63-25.56 60.75-24.91L60.75-24.91L60.75-24.91Q58.50-24.25 56.75-23.44L56.75-23.44L56.75-23.44Q52.44-21.44 52.44-19.25L52.44-19.25L52.44-19.25Q57.44-18.81 59.94-18.81L59.94-18.81L59.94-18.81Q66.88-18.81 69.31-20L69.31-20L69.31-20Q70.81-20.63 70.81-21.56L70.81-21.56L70.81-21.56Q70.81-22.69 69.41-23.69ZM81.81-29.38L85.75-29.38L85.75-29.38Q86.56-17.69 87.13-2.31L87.13-2.31L87.13-2.31Q86.75-0.38 84.13-0.38L84.13-0.38L84.13-0.38Q83.44-0.38 82.72-0.66L82.72-0.66L82.72-0.66Q82-0.94 81.81-1.44L81.81-1.44L81.81-29.38ZM79.94-37.88L79.94-37.88L79.94-37.88Q79.94-40.06 82.50-40.06L82.50-40.06L82.50-40.06Q84.19-40.06 85.25-39.31L85.25-39.31L85.25-39.31Q85.44-38.63 85.44-37.97L85.44-37.97L85.44-37.97Q85.44-37.31 84.94-36.69L84.94-36.69L84.94-36.69Q84.44-36.06 83.44-36.06L83.44-36.06L83.44-36.06Q82.44-36.06 81.44-36.53L81.44-36.53L81.44-36.53Q80.44-37 79.94-37.88ZM96.75 0.25L96.75 0.25L96.75 0.25Q90.50 0.25 90.50-2.50L90.50-2.50L90.50-2.50Q90.50-4.25 93.25-7.06L93.25-7.06L93.25-7.06Q96-9.88 98.06-11.66L98.06-11.66L98.06-11.66Q100.13-13.44 102-15.13L102-15.13L102-15.13Q106.44-19.19 109.25-22.63L109.25-22.63L109.25-22.63Q108.69-22.63 107.56-22.63L107.56-22.63L107.56-22.63Q106.44-22.63 104.28-22.47L104.28-22.47L104.28-22.47Q102.13-22.31 99.75-22.06L99.75-22.06L99.75-22.06Q93.31-21.38 91.31-21.38L91.31-21.38L91.31-21.38Q89.31-21.38 89.31-22.25L89.31-22.25L89.31-22.25Q89.31-23.31 90.53-24.19L90.53-24.19L90.53-24.19Q91.75-25.06 92.28-25.06L92.28-25.06L92.28-25.06Q92.81-25.06 93.09-25.13L93.09-25.13L93.09-25.13Q93.38-25.19 94.06-25.28L94.06-25.28L94.06-25.28Q94.75-25.38 96.03-25.53L96.03-25.53L96.03-25.53Q97.31-25.69 99.50-25.88L99.50-25.88L99.50-25.88Q103.81-26.31 113-27.06L113-27.06L113-27.06Q116-26.69 116-24.88L116-24.88L116-24.88Q116-22.56 111.63-18.13L111.63-18.13L111.63-18.13Q107.75-14.25 103.34-10.31L103.34-10.31L103.34-10.31Q98.94-6.38 97.19-4.50L97.19-4.50L97.19-4.50Q99.63-4.31 101.44-4.31L101.44-4.31L111.69-4.75L111.69-4.75Q114.06-4.75 116-4.53L116-4.53L116-4.53Q117.94-4.31 118.38-4.13L118.38-4.13L118.38-4.13Q119.38-3.56 119.38-2L119.38-2L119.38-2Q119.38-1.38 119.13-0.63L119.13-0.63L119.13-0.63Q117.56-0.81 115.88-0.81L115.88-0.81L115.88-0.81Q114.19-0.81 111.44-0.63L111.44-0.63L111.44-0.63Q108.69-0.44 104.81-0.13L104.81-0.13L104.81-0.13Q99.50 0.25 96.75 0.25Z" fill="url(#editing-shiny-gradient2)"></path></g></g><style>text {
  font-size: 64px;
  font-family: Arial Black;
  dominant-baseline: central;
  text-anchor: middle;
}</style></svg>