<svg width="573.5624755859375px" height="122.021240234375px" xmlns="http://www.w3.org/2000/svg" viewBox="169.386767578125 10.400000000000006 161.22646484375 129.2" style="background: rgba(0, 0, 0, 0);" preserveAspectRatio="xMidYMid"><defs><filter id="editing-vr"><feFlood flood-color="#f00" flood-opacity="0.7" result="c1"></feFlood><feFlood flood-color="#00f" flood-opacity="0.7" result="c3"></feFlood><feComposite operator="in" in="c1" in2="SourceAlpha" result="text-c1"></feComposite><feComposite operator="in" in="c3" in2="SourceAlpha" result="text-c3"></feComposite><feOffset in="text-c1" dx="5" dy="-1" result="text1"></feOffset><feOffset in="text-c3" dx="-5" dy="1" result="text3"></feOffset><feBlend in="SourceGraphic" in2="text1" mode="multiply" result="text4"></feBlend><feBlend in="text4" in2="text3" mode="multiply"></feBlend></filter></defs><g filter="url(#editing-vr)"><g transform="translate(199.12055069208145, 100.98500061035156)"><path d="M19.26-5.06L19.26-5.06L19.26-5.06Q19.97-5.06 19.97-4.35L19.97-4.35L19.97-4.35Q19.97-3.46 19.01-3.46L19.01-3.46L19.01-3.46Q14.72-3.46 9.86-1.92L9.86-1.92L9.86-1.92Q7.49-1.09 4.26 0.19L4.26 0.19L4.26 0.19Q1.02 1.47 0.80 1.47L0.80 1.47L0.80 1.47Q0.58 1.47 0.26 0.99L0.26 0.99L0.26 0.99Q-0.06 0.51-0.06-0.35L-0.06-0.35L-0.06-0.35Q-0.06-1.22 0.51-1.41L0.51-1.41L0.51-1.41Q2.24-2.18 6.98-3.78L6.98-3.78L6.98-3.78Q14.98-18.43 23.04-33.02L23.04-33.02L23.04-33.02Q19.52-30.85 14.08-28.80L14.08-28.80L14.08-28.80Q13.12-28.42 13.12-29.44L13.12-29.44L13.12-29.44Q13.12-29.95 13.70-30.27L13.70-30.27L13.70-30.27Q18.05-31.87 25.79-37.95L25.79-37.95L26.18-38.59L26.18-38.59Q26.82-39.81 28.86-39.81L28.86-39.81L28.86-39.81Q30.91-39.81 30.91-38.85L30.91-38.85L30.91-38.85Q30.91-38.66 30.72-38.34L30.72-38.34L10.11-4.29L10.11-4.29Q14.46-5.06 19.26-5.06ZM46.46-14.46L46.46-14.46L46.46-14.46Q46.46-9.28 40.54-4.64L40.54-4.64L40.54-4.64Q34.62 0 30.27 0L30.27 0L30.27 0Q27.39 0 26.08-0.38L26.08-0.38L26.08-0.38Q24.77-0.77 23.17-2.69L23.17-2.69L23.17-2.69Q22.08-1.79 20.22 1.89L20.22 1.89L20.22 1.89Q18.37 5.57 18.37 8.19L18.37 8.19L18.37 8.19Q18.37 9.41 19.58 11.39L19.58 11.39L19.58 11.39Q19.71 11.71 19.39 11.94L19.39 11.94L19.39 11.94Q19.07 12.16 18.91 12.16L18.91 12.16L18.91 12.16Q18.75 12.16 18.62 12.10L18.62 12.10L18.62 12.10Q15.94 10.62 15.94 6.37L15.94 6.37L15.94 6.37Q15.94 2.11 23.01-8.35L23.01-8.35L23.01-8.35Q30.08-18.82 32.77-19.71L32.77-19.71L32.77-19.71Q33.41-19.84 33.60-19.84L33.60-19.84L33.60-19.84Q34.69-19.84 34.69-17.47L34.69-17.47L34.69-17.47Q35.33-18.11 37.31-18.69L37.31-18.69L37.31-18.69Q39.74-19.33 40.77-19.33L40.77-19.33L40.77-19.33Q43.07-19.33 44.77-18.02L44.77-18.02L44.77-18.02Q46.46-16.70 46.46-14.46ZM43.20-15.10L43.20-15.10L43.20-15.10Q43.20-17.54 40.32-17.54L40.32-17.54L40.32-17.54Q37.44-17.54 35.07-16.32L35.07-16.32L35.07-16.32Q33.98-15.81 29.06-10.69L29.06-10.69L29.06-10.69Q24.13-5.57 24.13-4.10L24.13-4.10L24.13-4.10Q24.13-2.94 25.89-2.37L25.89-2.37L25.89-2.37Q27.65-1.79 29.44-1.79L29.44-1.79L29.44-1.79Q32.96-1.79 38.08-5.79L38.08-5.79L38.08-5.79Q43.20-9.79 43.20-15.10ZM49.73 0.83L49.73 0.83L49.73 0.83Q49.02 0.83 48.45 0.64L48.45 0.64L48.45 0.64Q44.35-0.51 44.35-3.97L44.35-3.97L44.35-3.97Q44.35-8.45 49.98-14.34L49.98-14.34L49.98-14.34Q55.62-20.22 60.10-20.22L60.10-20.22L60.10-20.22Q61.57-20.22 62.50-19.42L62.50-19.42L62.50-19.42Q63.42-18.62 63.42-17.47L63.42-17.47L63.42-17.47Q63.42-13.89 58.02-10.62L58.02-10.62L58.02-10.62Q52.61-7.36 49.22-7.36L49.22-7.36L49.22-7.36Q48.70-7.36 48.32-7.49L48.32-7.49L48.32-7.49Q47.36-5.76 47.36-3.84L47.36-3.84L47.36-3.84Q47.36-0.51 50.53-0.51L50.53-0.51L50.53-0.51Q53.70-0.51 58.75-4.80L58.75-4.80L58.75-4.80Q62.66-7.94 65.41-11.46L65.41-11.46L65.41-11.46Q65.98-12.22 66.40-12.22L66.40-12.22L66.40-12.22Q66.82-12.22 66.82-11.84L66.82-11.84L66.82-11.84Q66.82-11.46 66.30-10.75L66.30-10.75L66.30-10.75Q62.85-6.21 57.98-2.69L57.98-2.69L57.98-2.69Q53.12 0.83 49.73 0.83ZM61.82-17.60L61.82-17.60L61.82-17.60Q61.82-18.37 60.19-18.37L60.19-18.37L60.19-18.37Q58.56-18.37 55.55-15.87L55.55-15.87L55.55-15.87Q51.52-12.54 49.28-8.90L49.28-8.90L49.28-8.90Q49.66-8.77 50.11-8.77L50.11-8.77L50.11-8.77Q52.54-8.77 56.61-11.36L56.61-11.36L56.61-11.36Q60.67-13.95 61.70-17.02L61.70-17.02L61.70-17.02Q61.82-17.34 61.82-17.60ZM76.80-26.11L76.80-26.11Q77.76-26.11 78.62-25.50L78.62-25.50L78.62-25.50Q79.49-24.90 79.49-24.06L79.49-24.06L79.49-24.06Q79.49-23.23 78.69-22.62L78.69-22.62L78.69-22.62Q77.89-22.02 76.93-22.02L76.93-22.02L76.93-22.02Q75.97-22.02 75.17-22.72L75.17-22.72L75.17-22.72Q74.37-23.42 74.37-24.32L74.37-24.32L74.37-24.32Q74.37-26.11 76.80-26.11L76.80-26.11ZM65.22 0.70L65.22 0.70L65.22 0.70Q61.95 0.70 61.95-3.52L61.95-3.52L61.95-3.52Q61.95-6.98 65.73-13.09L65.73-13.09L65.73-13.09Q69.50-19.20 71.81-19.26L71.81-19.26L71.81-19.26Q72.45-19.26 73.25-18.75L73.25-18.75L73.25-18.75Q74.05-18.24 74.05-17.73L74.05-17.73L74.05-17.73Q73.73-17.28 73.28-16.74L73.28-16.74L73.28-16.74Q72.83-16.19 72.32-15.55L72.32-15.55L72.32-15.55Q71.81-14.91 70.91-13.73L70.91-13.73L70.91-13.73Q70.02-12.54 69.18-11.46L69.18-11.46L69.18-11.46Q64.38-5.25 64.38-2.91L64.38-2.91L64.38-2.91Q64.38-0.58 65.98-0.58L65.98-0.58L65.98-0.58Q67.33-0.58 69.63-2.05L69.63-2.05L69.63-2.05Q75.01-5.38 78.14-9.34L78.14-9.34L78.14-9.34Q79.30-10.82 79.71-10.82L79.71-10.82L79.71-10.82Q80.13-10.82 80.13-10.30L80.13-10.30L80.13-10.30Q80.13-9.79 78.66-8.26L78.66-8.26L78.66-8.26Q77.18-6.72 76.32-5.82L76.32-5.82L76.32-5.82Q75.46-4.93 75.14-4.64L75.14-4.64L75.14-4.64Q74.82-4.35 73.95-3.55L73.95-3.55L73.95-3.55Q73.09-2.75 72.64-2.43L72.64-2.43L72.64-2.43Q72.19-2.11 71.36-1.47L71.36-1.47L71.36-1.47Q70.53-0.83 69.89-0.54L69.89-0.54L69.89-0.54Q69.25-0.26 68.42 0.13L68.42 0.13L68.42 0.13Q67.07 0.70 65.22 0.70ZM81.66-2.62L81.66-2.62L81.66-2.62Q79.10-0.83 78.02-0.83L78.02-0.83L78.02-0.83Q76.54-0.83 76.54-2.43L76.54-2.43L76.54-2.43Q76.54-3.01 76.93-3.84L76.93-3.84L76.93-3.84Q77.31-4.67 77.70-4.67L77.70-4.67L77.70-4.67Q78.27-4.67 77.95-3.71L77.95-3.71L77.95-3.71Q77.76-2.75 78.53-2.75L78.53-2.75L78.53-2.75Q79.30-2.75 80.38-3.52L80.38-3.52L77.95-5.38L77.95-5.38Q77.82-5.50 77.82-5.82L77.82-5.82L77.82-5.82Q77.82-6.14 78.46-6.75L78.46-6.75L78.46-6.75Q79.10-7.36 79.46-7.36L79.46-7.36L79.46-7.36Q79.81-7.36 82.56-5.18L82.56-5.18L82.56-5.18Q90.50-14.14 94.21-16.96L94.21-16.96L94.21-16.96Q89.15-18.50 86.72-18.50L86.72-18.50L86.72-18.50Q86.02-18.50 85.38-18.40L85.38-18.40L85.38-18.40Q84.74-18.30 84-17.63L84-17.63L84-17.63Q83.26-16.96 83.26-16.13L83.26-16.13L83.26-16.13Q83.26-15.30 83.97-14.75L83.97-14.75L83.97-14.75Q84.67-14.21 84.67-13.89L84.67-13.89L84.67-13.89Q84.67-13.57 84.19-13.57L84.19-13.57L84.19-13.57Q83.71-13.57 82.62-14.85L82.62-14.85L82.62-14.85Q81.60-16.13 81.60-17.47L81.60-17.47L81.60-17.47Q81.60-19.71 84.86-20.42L84.86-20.42L84.86-20.42Q86.59-20.74 88.38-20.74L88.38-20.74L88.38-20.74Q90.18-20.74 97.22-18.43L97.22-18.43L97.22-18.43Q98.11-18.94 99.14-18.94L99.14-18.94L99.14-18.94Q101.82-18.94 101.82-17.34L101.82-17.34L101.82-17.34Q101.82-16.70 100.99-16.16L100.99-16.16L100.99-16.16Q100.16-15.62 99.01-15.62L99.01-15.62L99.01-15.62Q97.86-15.62 96.90-16.06L96.90-16.06L96.90-16.06Q90.82-12.29 83.84-4.16L83.84-4.16L86.14-2.37L86.14-2.37Q88.90-0.58 92.54-0.58L92.54-0.58L92.54-0.58Q96.19-0.58 97.92-1.73L97.92-1.73L97.92-1.73Q99.65-2.88 99.65-4.67L99.65-4.67L99.65-4.67Q99.65-5.50 99.33-6.24L99.33-6.24L99.33-6.24Q99.01-6.98 99.90-6.98L99.90-6.98L99.90-6.98Q100.22-6.98 100.54-6.24L100.54-6.24L100.54-6.24Q100.86-5.50 100.86-4.48L100.86-4.48L100.86-4.48Q100.86-1.92 98.43-0.26L98.43-0.26L98.43-0.26Q96 1.41 92.16 1.41L92.16 1.41L92.16 1.41Q87.94 1.41 85.18-0.19L85.18-0.19L85.18-0.19Q84.10-0.77 81.66-2.62Z" fill="#444"></path></g></g><style>text {
  font-size: 64px;
  font-family: Arial Black;
  dominant-baseline: central;
  text-anchor: middle;
}</style></svg>