<svg width="573.5624755859375px" height="122.021240234375px" xmlns="http://www.w3.org/2000/svg" viewBox="-36.78123779296874 13.9893798828125 573.5624755859375 122.021240234375" style="background: rgba(0, 0, 0, 0);" preserveAspectRatio="xMidYMid"><defs><filter id="editing-vr"><feFlood flood-color="#f00" flood-opacity="0.7" result="c1"></feFlood><feFlood flood-color="#00f" flood-opacity="0.7" result="c3"></feFlood><feComposite operator="in" in="c1" in2="SourceAlpha" result="text-c1"></feComposite><feComposite operator="in" in="c3" in2="SourceAlpha" result="text-c3"></feComposite><feOffset in="text-c1" dx="5" dy="-1" result="text1"></feOffset><feOffset in="text-c3" dx="-5" dy="1" result="text3"></feOffset><feBlend in="SourceGraphic" in2="text1" mode="multiply" result="text4"></feBlend><feBlend in="text4" in2="text3" mode="multiply"></feBlend></filter></defs><g filter="url(#editing-vr)"><g transform="translate(46.195003032684326, 104.75218772888184)"><path d="M27.01-20.61L39.94-21.76L39.94-21.76Q35.33-11.65 35.33 0.06L35.33 0.06L35.33 0.06Q33.60 1.28 31.07 1.28L31.07 1.28L31.07 1.28Q28.54 1.28 26.94 0.10L26.94 0.10L26.94 0.10Q25.34-1.09 25.02-2.30L25.02-2.30L25.02-2.30Q23.42-0.64 20.83 0.32L20.83 0.32L20.83 0.32Q18.24 1.28 15.49 1.28L15.49 1.28L15.49 1.28Q12.74 1.28 10.34 0.38L10.34 0.38L10.34 0.38Q7.94-0.51 6.08-2.50L6.08-2.50L6.08-2.50Q1.98-6.85 1.98-15.10L1.98-15.10L1.98-15.10Q1.98-27.90 8.83-35.58L8.83-35.58L8.83-35.58Q15.87-43.52 28.35-43.52L28.35-43.52L28.35-43.52Q36.99-43.52 40.06-39.04L40.06-39.04L40.06-39.04Q41.02-37.63 41.02-35.94L41.02-35.94L41.02-35.94Q41.02-34.24 40.29-32.80L40.29-32.80L40.29-32.80Q39.55-31.36 38.40-30.21L38.40-30.21L38.40-30.21Q35.65-27.65 32.26-27.65L32.26-27.65L32.26-27.65Q30.91-27.65 29.63-28.10L29.63-28.10L29.63-28.10Q29.89-30.02 29.89-32.26L29.89-32.26L29.89-32.26Q29.89-34.50 29.73-35.52L29.73-35.52L29.73-35.52Q29.57-36.54 29.18-37.38L29.18-37.38L29.18-37.38Q28.35-39.10 26.53-39.10L26.53-39.10L26.53-39.10Q24.70-39.10 22.69-37.15L22.69-37.15L22.69-37.15Q20.67-35.20 19.07-32L19.07-32L19.07-32Q15.55-24.83 15.55-16.19L15.55-16.19L15.55-16.19Q15.55-12.22 17.09-9.41L17.09-9.41L17.09-9.41Q18.75-6.34 21.70-6.34L21.70-6.34L21.70-6.34Q22.72-6.34 23.65-6.85L23.65-6.85L23.65-6.85Q24.58-7.36 24.96-7.74L24.96-7.74L27.01-20.61ZM63.10-17.98L63.10-17.98L63.10-17.98Q65.41-22.08 65.41-26.24L65.41-26.24L65.41-26.24Q65.41-28.99 63.42-28.99L63.42-28.99L63.42-28.99Q61.89-28.99 60.29-26.37L60.29-26.37L60.29-26.37Q58.62-23.74 58.11-20.35L58.11-20.35L54.78 0L41.54 1.28L48.06-32.64L58.62-33.92L57.47-27.46L57.47-27.46Q60.61-33.92 67.65-33.92L67.65-33.92L67.65-33.92Q71.36-33.92 73.38-32L73.38-32L73.38-32Q75.39-30.08 75.39-26.14L75.39-26.14L75.39-26.14Q75.39-22.21 72.80-19.71L72.80-19.71L72.80-19.71Q70.21-17.22 65.79-17.22L65.79-17.22L65.79-17.22Q63.87-17.22 63.10-17.98ZM91.78-3.52L91.78-3.52L91.78-3.52Q89.79 1.28 83.46 1.28L83.46 1.28L83.46 1.28Q80.19 1.28 78.14-0.96L78.14-0.96L78.14-0.96Q76.42-2.94 76.42-4.93L76.42-4.93L76.42-4.93Q76.42-10.11 78.78-20.22L78.78-20.22L81.15-32.64L94.14-33.92L90.24-13.70L90.24-13.70Q89.15-8.96 89.15-7.30L89.15-7.30L89.15-7.30Q89.15-3.65 91.78-3.52ZM82.30-41.54L82.30-41.54L82.30-41.54Q82.30-44.03 84.38-45.38L84.38-45.38L84.38-45.38Q86.46-46.72 89.47-46.72L89.47-46.72L89.47-46.72Q92.48-46.72 94.30-45.38L94.30-45.38L94.30-45.38Q96.13-44.03 96.13-41.54L96.13-41.54L96.13-41.54Q96.13-39.04 94.11-37.76L94.11-37.76L94.11-37.76Q92.10-36.48 89.09-36.48L89.09-36.48L89.09-36.48Q86.08-36.48 84.19-37.76L84.19-37.76L84.19-37.76Q82.30-39.04 82.30-41.54ZM122.18-37.12L122.18-37.12L122.18-37.12Q123.07-38.66 123.07-40.32L123.07-40.32L123.07-40.32Q123.07-43.26 121.28-43.26L121.28-43.26L121.28-43.26Q118.53-43.26 117.38-37.63L117.38-37.63L116.42-32.64L122.24-32.64L121.86-29.76L115.84-29.76L110.08 0L97.15 1.28L103.30-29.76L98.75-29.76L99.33-32.64L103.81-32.64L105.15-37.70L105.15-37.70Q106.30-42.37 111.23-44.54L111.23-44.54L111.23-44.54Q114.82-46.08 120.83-46.08L120.83-46.08L120.83-46.08Q126.85-46.08 129.54-44.54L129.54-44.54L129.54-44.54Q132.22-43.01 132.22-40.96L132.22-40.96L132.22-40.96Q132.22-38.91 130.62-37.63L130.62-37.63L130.62-37.63Q129.02-36.35 127.23-36.35L127.23-36.35L127.23-36.35Q123.71-36.35 122.18-37.12ZM146.62-37.12L146.62-37.12L146.62-37.12Q147.52-38.66 147.52-40.32L147.52-40.32L147.52-40.32Q147.52-43.26 145.73-43.26L145.73-43.26L145.73-43.26Q142.98-43.26 141.82-37.63L141.82-37.63L140.86-32.64L146.69-32.64L146.30-29.76L140.29-29.76L134.53 0L121.60 1.28L127.74-29.76L123.20-29.76L123.78-32.64L128.26-32.64L129.60-37.70L129.60-37.70Q130.75-42.37 135.68-44.54L135.68-44.54L135.68-44.54Q139.26-46.08 145.28-46.08L145.28-46.08L145.28-46.08Q151.30-46.08 153.98-44.54L153.98-44.54L153.98-44.54Q156.67-43.01 156.67-40.96L156.67-40.96L156.67-40.96Q156.67-38.91 155.07-37.63L155.07-37.63L155.07-37.63Q153.47-36.35 151.68-36.35L151.68-36.35L151.68-36.35Q148.16-36.35 146.62-37.12ZM166.98-3.52L166.98-3.52L166.98-3.52Q164.99 1.28 158.66 1.28L158.66 1.28L158.66 1.28Q155.39 1.28 153.34-0.96L153.34-0.96L153.34-0.96Q151.62-2.94 151.62-4.93L151.62-4.93L151.62-4.93Q151.62-10.11 153.98-20.22L153.98-20.22L156.35-32.64L169.34-33.92L165.44-13.70L165.44-13.70Q164.35-8.96 164.35-7.30L164.35-7.30L164.35-7.30Q164.35-3.65 166.98-3.52ZM157.50-41.54L157.50-41.54L157.50-41.54Q157.50-44.03 159.58-45.38L159.58-45.38L159.58-45.38Q161.66-46.72 164.67-46.72L164.67-46.72L164.67-46.72Q167.68-46.72 169.50-45.38L169.50-45.38L169.50-45.38Q171.33-44.03 171.33-41.54L171.33-41.54L171.33-41.54Q171.33-39.04 169.31-37.76L169.31-37.76L169.31-37.76Q167.30-36.48 164.29-36.48L164.29-36.48L164.29-36.48Q161.28-36.48 159.39-37.76L159.39-37.76L159.39-37.76Q157.50-39.04 157.50-41.54ZM199.49 1.28L199.49 1.28L199.49 1.28Q191.74 1.28 191.74-4.74L191.74-4.74L191.74-4.74Q191.81-6.40 192.32-9.22L192.32-9.22L193.47-15.10L193.47-15.10Q195.20-23.42 195.20-25.28L195.20-25.28L195.20-25.28Q195.20-28.99 193.02-28.99L193.02-28.99L193.02-28.99Q189.38-28.99 187.46-19.46L187.46-19.46L183.68 0L170.82 1.28L177.47-32.70L187.97-33.92L186.94-27.65L186.94-27.65Q189.95-33.92 199.17-33.92L199.17-33.92L199.17-33.92Q203.65-33.92 205.54-32.03L205.54-32.03L205.54-32.03Q207.42-30.14 207.42-25.92L207.42-25.92L207.42-25.92Q207.42-21.95 205.38-12.67L205.38-12.67L205.38-12.67Q204.42-8.51 204.42-6.94L204.42-6.94L204.42-6.94Q204.42-5.38 205.28-4.48L205.28-4.48L205.28-4.48Q206.14-3.58 207.42-3.46L207.42-3.46L207.42-3.46Q206.78-1.28 204.58 0L204.58 0L204.58 0Q202.37 1.28 199.49 1.28ZM221.82-29.50L215.04-29.50L215.04-29.50Q217.41-37.70 217.54-46.34L217.54-46.34L219.39-46.59L219.39-46.59Q220.35-46.72 221.06-46.72L221.06-46.72L221.06-46.72Q223.87-46.72 225.41-45.34L225.41-45.34L225.41-45.34Q226.94-43.97 226.94-41.54L226.94-41.54L226.94-41.54Q226.94-38.98 225.79-36.16L225.79-36.16L225.79-36.16Q223.74-31.17 221.82-29.50L221.82-29.50ZM245.31-22.46L245.31-22.46L245.31-22.46Q246.21-24.83 246.21-26.88L246.21-26.88L246.21-26.88Q246.21-30.66 243.14-30.66L243.14-30.66L243.14-30.66Q241.54-30.66 240.22-29.22L240.22-29.22L240.22-29.22Q238.91-27.78 238.91-25.98L238.91-25.98L238.91-25.98Q238.91-24.70 239.94-23.68L239.94-23.68L239.94-23.68Q241.41-22.27 245.18-19.97L245.18-19.97L245.18-19.97Q248.96-17.66 250.40-15.78L250.40-15.78L250.40-15.78Q251.84-13.89 251.84-11.30L251.84-11.30L251.84-11.30Q251.84-8.70 250.59-6.34L250.59-6.34L250.59-6.34Q249.34-3.97 247.10-2.30L247.10-2.30L247.10-2.30Q242.30 1.28 234.62 1.28L234.62 1.28L234.62 1.28Q230.46 1.28 227.26-0.90L227.26-0.90L227.26-0.90Q224.06-3.01 224.06-5.50L224.06-5.50L224.06-5.50Q224.06-8 225.89-9.47L225.89-9.47L225.89-9.47Q227.71-10.94 230.40-10.94L230.40-10.94L230.40-10.94Q233.09-10.94 234.75-9.92L234.75-9.92L234.75-9.92Q233.92-7.81 233.92-6.40L233.92-6.40L233.92-6.40Q233.92-2.18 237.50-2.18L237.50-2.18L237.50-2.18Q239.04-2.18 240.06-3.14L240.06-3.14L240.06-3.14Q241.09-4.10 241.09-5.76L241.09-5.76L241.09-5.76Q241.09-9.02 235.58-12.48L235.58-12.48L235.58-12.48Q231.10-15.42 230.08-16.58L230.08-16.58L230.08-16.58Q228.35-18.62 228.35-21.18L228.35-21.18L228.35-21.18Q228.35-23.74 229.57-26.18L229.57-26.18L229.57-26.18Q230.78-28.61 233.02-30.34L233.02-30.34L233.02-30.34Q237.70-33.92 245.82-33.92L245.82-33.92L245.82-33.92Q249.98-33.92 252.45-32.26L252.45-32.26L252.45-32.26Q254.91-30.59 254.91-27.78L254.91-27.78L254.91-27.78Q254.91-24.96 253.22-23.36L253.22-23.36L253.22-23.36Q251.52-21.76 248.45-21.76L248.45-21.76L248.45-21.76Q246.34-21.76 245.31-22.46ZM269.82-0.32L269.82-0.32L277.89-42.24L277.89-42.24Q285.44-42.88 290.30-42.88L290.30-42.88L290.30-42.88Q295.17-42.88 298.30-42.46L298.30-42.46L298.30-42.46Q301.44-42.05 303.55-40.96L303.55-40.96L303.55-40.96Q307.78-38.91 307.78-33.28L307.78-33.28L307.78-33.28Q307.78-30.02 304.96-27.26L304.96-27.26L304.96-27.26Q302.34-24.77 299.46-24.19L299.46-24.19L299.46-24.19Q302.53-23.68 304.70-21.38L304.70-21.38L304.70-21.38Q307.01-18.94 307.01-15.17L307.01-15.17L307.01-15.17Q307.01-7.87 301.57-3.62L301.57-3.62L301.57-3.62Q296.13 0.64 285.44 0.64L285.44 0.64L285.44 0.64Q278.08 0.64 269.82-0.32ZM287.23-20.61L284.03-4.03L284.03-4.03Q284.61-3.97 284.74-3.97L284.74-3.97L285.31-3.97L285.31-3.97Q290.56-3.97 292.80-7.42L292.80-7.42L292.80-7.42Q294.46-10.11 294.46-15.04L294.46-15.04L294.46-15.04Q294.46-17.66 292.77-19.07L292.77-19.07L292.77-19.07Q291.07-20.48 287.23-20.61L287.23-20.61ZM296.96-33.22L296.96-33.22L296.96-33.22Q296.96-38.53 291.84-38.53L291.84-38.53L291.26-38.53L291.26-38.53Q291.01-38.53 290.62-38.46L290.62-38.46L288.06-24.96L288.70-24.96L288.70-24.96Q296.96-25.15 296.96-33.22ZM326.53-3.52L326.53-3.52L326.53-3.52Q324.54 1.28 318.21 1.28L318.21 1.28L318.21 1.28Q315.01 1.28 312.96-0.96L312.96-0.96L312.96-0.96Q311.30-2.82 311.30-4.93L311.30-4.93L311.30-4.93Q311.30-9.73 313.54-20.22L313.54-20.22L318.21-44.80L331.20-46.08L324.99-13.70L324.99-13.70Q323.90-8.96 323.90-7.30L323.90-7.30L323.90-7.30Q323.90-3.65 326.53-3.52ZM345.92 1.28L345.92 1.28L345.92 1.28Q331.84 1.28 331.84-11.97L331.84-11.97L331.84-11.97Q331.84-21.38 337.02-27.46L337.02-27.46L337.02-27.46Q342.53-33.92 352.06-33.92L352.06-33.92L352.06-33.92Q358.98-33.92 362.50-30.72L362.50-30.72L362.50-30.72Q366.02-27.52 366.02-20.80L366.02-20.80L366.02-20.80Q366.02-10.56 360.51-4.61L360.51-4.61L360.51-4.61Q355.14 1.28 345.92 1.28ZM347.58-26.56L347.58-26.56L347.58-26.56Q346.82-24.83 346.21-22.24L346.21-22.24L346.21-22.24Q345.60-19.65 344.83-15.55L344.83-15.55L344.83-15.55Q344.06-11.46 344.06-6.40L344.06-6.40L344.06-6.40Q344.06-4.74 344.61-3.65L344.61-3.65L344.61-3.65Q345.15-2.56 346.62-2.56L346.62-2.56L346.62-2.56Q348.10-2.56 349.02-3.26L349.02-3.26L349.02-3.26Q349.95-3.97 350.66-5.63L350.66-5.63L350.66-5.63Q351.94-8.58 352.96-14.05L352.96-14.05L352.96-14.05Q353.98-19.52 354.08-21.89L354.08-21.89L354.08-21.89Q354.18-24.26 354.18-26.02L354.18-26.02L354.18-26.02Q354.18-27.78 353.66-28.93L353.66-28.93L353.66-28.93Q353.15-30.08 351.71-30.08L351.71-30.08L351.71-30.08Q350.27-30.08 349.31-29.18L349.31-29.18L349.31-29.18Q348.35-28.29 347.58-26.56ZM374.34-26.75L374.34-26.75L374.34-26.75Q376.51-29.82 379.81-31.87L379.81-31.87L379.81-31.87Q383.10-33.92 387.14-33.92L387.14-33.92L387.14-33.92Q391.17-33.92 393.09-32.64L393.09-32.64L405.63-33.92L401.28-9.34L401.28-9.34Q399.04 3.20 394.30 8.13L394.30 8.13L394.30 8.13Q389.76 12.80 380.93 12.80L380.93 12.80L380.93 12.80Q374.21 12.80 370.37 10.69L370.37 10.69L370.37 10.69Q366.53 8.58 366.53 5.06L366.53 5.06L366.53 5.06Q366.53 2.43 368.51 0.93L368.51 0.93L368.51 0.93Q370.50-0.58 373.57-0.58L373.57-0.58L373.57-0.58Q376.26-0.58 378.30 0.64L378.30 0.64L378.30 0.64Q379.52 1.28 380.10 2.18L380.10 2.18L380.10 2.18Q378.62 3.46 378.62 5.57L378.62 5.57L378.62 5.57Q378.62 8.32 381.18 8.32L381.18 8.32L381.18 8.32Q385.47 8.32 387.90-1.79L387.90-1.79L387.90-1.79Q388.61-4.54 389.18-7.30L389.18-7.30L389.18-7.30Q386.30-3.78 379.78-3.78L379.78-3.78L379.78-3.78Q375.23-3.78 372.61-5.95L372.61-5.95L372.61-5.95Q369.98-8.13 369.98-13.25L369.98-13.25L369.98-13.25Q369.98-16.45 371.07-20.06L371.07-20.06L371.07-20.06Q372.16-23.68 374.34-26.75ZM382.66-13.06L382.66-13.06L382.66-13.06Q382.66-8.70 384.90-8.70L384.90-8.70L384.90-8.70Q386.43-8.70 387.90-10.37L387.90-10.37L387.90-10.37Q389.06-11.71 389.50-13.70L389.50-13.70L392.77-30.14L392.77-30.14Q392.45-30.21 392.13-30.34L392.13-30.34L392.13-30.34Q391.49-30.59 390.66-30.59L390.66-30.59L390.66-30.59Q386.75-30.59 384.45-24.19L384.45-24.19L384.45-24.19Q382.66-19.20 382.66-13.06Z" fill="#444"></path></g></g><style>text {
  font-size: 64px;
  font-family: Arial Black;
  dominant-baseline: central;
  text-anchor: middle;
}</style></svg>